<svg width="40" height="40" viewBox="0 0 40 40" fill="none" xmlns="http://www.w3.org/2000/svg">
<path d="M4.16699 19.9998C4.16699 12.5359 4.16699 8.80398 6.48573 6.48524C8.80447 4.1665 12.5364 4.1665 20.0003 4.1665C27.4642 4.1665 31.1962 4.1665 33.5149 6.48524C35.8337 8.80398 35.8337 12.5359 35.8337 19.9998C35.8337 27.4637 35.8337 31.1957 33.5149 33.5144C31.1962 35.8332 27.4642 35.8332 20.0003 35.8332C12.5364 35.8332 8.80447 35.8332 6.48573 33.5144C4.16699 31.1957 4.16699 27.4637 4.16699 19.9998Z" stroke="white" stroke-width="1.5" stroke-linejoin="round"/>
<path d="M27.5 20C27.5 24.1421 24.1421 27.5 20 27.5C15.8579 27.5 12.5 24.1421 12.5 20C12.5 15.8579 15.8579 12.5 20 12.5C24.1421 12.5 27.5 15.8579 27.5 20Z" stroke="white" stroke-width="1.5"/>
<path d="M29.1797 10.8335L29.1695 10.8335" stroke="white" stroke-width="2" stroke-linecap="round" stroke-linejoin="round"/>
</svg>
