<svg width="40" height="40" viewBox="0 0 40 40" fill="none" xmlns="http://www.w3.org/2000/svg">
<path d="M3.33301 8.3335L14.8547 14.8745C19.0641 17.2643 20.9352 17.2643 25.1446 14.8745L36.6663 8.3335" stroke="white" stroke-width="1.5" stroke-linejoin="round"/>
<path d="M17.4997 32.4998C16.7225 32.4897 15.9444 32.4748 15.1644 32.4552C9.91689 32.3233 7.29315 32.2573 5.40794 30.3638C3.52272 28.4704 3.46824 25.9143 3.35928 20.8021C3.32425 19.1584 3.32425 17.5243 3.35928 15.8805C3.46824 10.7684 3.52271 8.2123 5.40793 6.31882C7.29315 4.42534 9.91689 4.35939 15.1644 4.22748C18.3985 4.14618 21.6008 4.14618 24.835 4.22749C30.0825 4.35941 32.7062 4.42537 34.5914 6.31885C36.4766 8.21232 36.5311 10.7684 36.6401 15.8806C36.6562 16.6374 36.6649 16.994 36.6662 17.4998" stroke="white" stroke-width="1.5" stroke-linecap="round" stroke-linejoin="round"/>
<path d="M31.667 28.3335C31.667 29.7142 30.5477 30.8335 29.167 30.8335C27.7863 30.8335 26.667 29.7142 26.667 28.3335C26.667 26.9528 27.7863 25.8335 29.167 25.8335C30.5477 25.8335 31.667 26.9528 31.667 28.3335ZM31.667 28.3335V29.1668C31.667 30.5475 32.7863 31.6668 34.167 31.6668C35.5477 31.6668 36.667 30.5475 36.667 29.1668V28.3335C36.667 24.1914 33.3091 20.8335 29.167 20.8335C25.0249 20.8335 21.667 24.1914 21.667 28.3335C21.667 32.4756 25.0249 35.8335 29.167 35.8335" stroke="white" stroke-width="1.5" stroke-linecap="round" stroke-linejoin="round"/>
</svg>
